<?xml version="1.0" encoding="UTF-8" standalone="no"?><!DOCTYPE svg PUBLIC "-//W3C//DTD SVG 1.1//EN" "http://www.w3.org/Graphics/SVG/1.1/DTD/svg11.dtd"><!-- Generated by graphviz version 2.40.1 (20161225.0304)
 --><!-- Title: G Pages: 1 --><svg xmlns="http://www.w3.org/2000/svg" xmlns:xlink="http://www.w3.org/1999/xlink" width="284pt" height="225pt" viewBox="7.20 7.20 276.59 217.36">
<g id="graph0" class="graph" transform="scale(1 1) rotate(0) translate(11.2 213.3607)">
<title>G</title>
<polygon fill="#ffffff" stroke="transparent" points="-4,4 -4,-206.1607 265.3869,-206.1607 265.3869,4 -4,4"/>
<!-- 1 -->
<g id="node1" class="node">
<title>1</title>
<ellipse fill="none" stroke="#000000" cx="145.6935" cy="-184.1607" rx="18" ry="18"/>
<text text-anchor="middle" x="145.6935" y="-179.9607" font-family="Times,serif" font-size="14.00" fill="#000000">1</text>
</g>
<!-- 15 -->
<g id="node2" class="node">
<title>15</title>
<ellipse fill="none" stroke="#000000" cx="114.6935" cy="-131.4673" rx="20.8887" ry="20.8887"/>
<text text-anchor="middle" x="114.6935" y="-127.2673" font-family="Times,serif" font-size="14.00" fill="#000000">15</text>
</g>
<!-- 1&#45;&gt;15 -->
<g id="edge1" class="edge">
<title>1-&gt;15</title>
<path fill="none" stroke="#000000" d="M136.5601,-168.6359C134.3723,-164.9171 131.9796,-160.8501 129.6054,-156.8144"/>
<polygon fill="#000000" stroke="#000000" points="131.8698,-155.1414 125.3999,-149.6659 127.0431,-157.981 131.8698,-155.1414"/>
</g>
<!-- 9 -->
<g id="node3" class="node">
<title>9</title>
<ellipse fill="none" stroke="#000000" cx="177.6935" cy="-131.4673" rx="18" ry="18"/>
<text text-anchor="middle" x="177.6935" y="-127.2673" font-family="Times,serif" font-size="14.00" fill="#000000">9</text>
</g>
<!-- 1&#45;&gt;9 -->
<g id="edge2" class="edge">
<title>1-&gt;9</title>
<path fill="none" stroke="#000000" d="M155.1214,-168.6359C157.896,-164.0671 160.9898,-158.9727 163.9753,-154.0565"/>
<polygon fill="#000000" stroke="#000000" points="166.463,-155.3544 168.2223,-147.0632 161.6764,-152.4476 166.463,-155.3544"/>
</g>
<!-- 19 -->
<g id="node4" class="node">
<title>19</title>
<ellipse fill="none" stroke="#000000" cx="51.6935" cy="-76.0804" rx="20.8887" ry="20.8887"/>
<text text-anchor="middle" x="51.6935" y="-71.8804" font-family="Times,serif" font-size="14.00" fill="#000000">19</text>
</g>
<!-- 15&#45;&gt;19 -->
<g id="edge3" class="edge">
<title>15-&gt;19</title>
<path fill="none" stroke="#000000" d="M99.1204,-117.7761C91.4548,-111.0369 82.0816,-102.7963 73.6982,-95.426"/>
<polygon fill="#000000" stroke="#000000" points="75.3819,-93.178 67.5249,-89.9987 71.6844,-97.3838 75.3819,-93.178"/>
</g>
<!-- 35 -->
<g id="node5" class="node">
<title>35</title>
<ellipse fill="none" stroke="#000000" cx="114.6935" cy="-76.0804" rx="20.8887" ry="20.8887"/>
<text text-anchor="middle" x="114.6935" y="-71.8804" font-family="Times,serif" font-size="14.00" fill="#000000">35</text>
</g>
<!-- 15&#45;&gt;35 -->
<g id="edge4" class="edge">
<title>15-&gt;35</title>
<path fill="none" stroke="#000000" d="M114.6935,-110.5278C114.6935,-108.7358 114.6935,-106.9035 114.6935,-105.0636"/>
<polygon fill="#000000" stroke="#000000" points="117.4936,-105.0493 114.6935,-97.0494 111.8936,-105.0494 117.4936,-105.0493"/>
</g>
<!-- 22 -->
<g id="node6" class="node">
<title>22</title>
<ellipse fill="none" stroke="#000000" cx="177.6935" cy="-76.0804" rx="20.8887" ry="20.8887"/>
<text text-anchor="middle" x="177.6935" y="-71.8804" font-family="Times,serif" font-size="14.00" fill="#000000">22</text>
</g>
<!-- 9&#45;&gt;22 -->
<g id="edge5" class="edge">
<title>9-&gt;22</title>
<path fill="none" stroke="#000000" d="M177.6935,-113.3315C177.6935,-110.7445 177.6935,-108.0306 177.6935,-105.2969"/>
<polygon fill="#000000" stroke="#000000" points="180.4936,-105.1432 177.6935,-97.1432 174.8936,-105.1432 180.4936,-105.1432"/>
</g>
<!-- 63 -->
<g id="node7" class="node">
<title>63</title>
<ellipse fill="none" stroke="#000000" cx="240.6935" cy="-76.0804" rx="20.8887" ry="20.8887"/>
<text text-anchor="middle" x="240.6935" y="-71.8804" font-family="Times,serif" font-size="14.00" fill="#000000">63</text>
</g>
<!-- 9&#45;&gt;63 -->
<g id="edge6" class="edge">
<title>9-&gt;63</title>
<path fill="none" stroke="#000000" d="M191.3635,-119.4491C199.3613,-112.4178 209.6456,-103.3763 218.7524,-95.37"/>
<polygon fill="#000000" stroke="#000000" points="220.6669,-97.4151 224.8264,-90.03 216.9694,-93.2093 220.6669,-97.4151"/>
</g>
<!-- 33 -->
<g id="node8" class="node">
<title>33</title>
<ellipse fill="none" stroke="#000000" cx="20.6935" cy="-20.6935" rx="20.8887" ry="20.8887"/>
<text text-anchor="middle" x="20.6935" y="-16.4935" font-family="Times,serif" font-size="14.00" fill="#000000">33</text>
</g>
<!-- 19&#45;&gt;33 -->
<g id="edge7" class="edge">
<title>19-&gt;33</title>
<path fill="none" stroke="#000000" d="M41.5429,-57.9446C39.4239,-54.1587 37.1529,-50.1012 34.9176,-46.1073"/>
<polygon fill="#000000" stroke="#000000" points="37.3236,-44.673 30.9729,-39.0596 32.4369,-47.4081 37.3236,-44.673"/>
</g>
<!-- 27 -->
<g id="node9" class="node">
<title>27</title>
<ellipse fill="none" stroke="#000000" cx="83.6935" cy="-20.6935" rx="20.8887" ry="20.8887"/>
<text text-anchor="middle" x="83.6935" y="-16.4935" font-family="Times,serif" font-size="14.00" fill="#000000">27</text>
</g>
<!-- 19&#45;&gt;27 -->
<g id="edge8" class="edge">
<title>19-&gt;27</title>
<path fill="none" stroke="#000000" d="M62.1714,-57.9446C64.4043,-54.0798 66.8008,-49.932 69.1547,-45.8578"/>
<polygon fill="#000000" stroke="#000000" points="71.7235,-47.0085 73.3012,-38.6808 66.8746,-44.207 71.7235,-47.0085"/>
</g>
</g>
</svg>